<mxfile host="app.diagrams.net" agent="Mozilla/5.0 (Macintosh; Intel Mac OS X 10_15_7) AppleWebKit/537.36 (KHTML, like Gecko) Chrome/137.0.0.0 Safari/537.36" version="25.0.3">
  <diagram name="Page-1" id="ep_53Sz6A9_Jnus-veDO">
    <mxGraphModel dx="1026" dy="650" grid="1" gridSize="10" guides="1" tooltips="1" connect="1" arrows="1" fold="1" page="1" pageScale="1" pageWidth="827" pageHeight="1169" math="0" shadow="0">
      <root>
        <mxCell id="0" />
        <mxCell id="1" parent="0" />
        <mxCell id="b5Oa3P-CXQSh83IXfHzO-1" value="Martial Arts&lt;div&gt;&lt;br&gt;&lt;/div&gt;&lt;div&gt;Main Sports&lt;/div&gt;&lt;div&gt;&lt;br&gt;&lt;/div&gt;" style="rounded=0;whiteSpace=wrap;html=1;" vertex="1" parent="1">
          <mxGeometry x="350" y="50" width="120" height="60" as="geometry" />
        </mxCell>
        <mxCell id="b5Oa3P-CXQSh83IXfHzO-3" value="Swimming [To increase Stamina]&lt;div&gt;&lt;br&gt;&lt;/div&gt;" style="rounded=0;whiteSpace=wrap;html=1;" vertex="1" parent="1">
          <mxGeometry x="90" y="210" width="120" height="60" as="geometry" />
        </mxCell>
        <mxCell id="b5Oa3P-CXQSh83IXfHzO-4" value="&lt;div&gt;Streching and yoga and pilates to tone and strech muscles&lt;/div&gt;&lt;div&gt;&lt;br&gt;&lt;/div&gt;" style="rounded=0;whiteSpace=wrap;html=1;" vertex="1" parent="1">
          <mxGeometry x="290" y="210" width="120" height="60" as="geometry" />
        </mxCell>
        <mxCell id="b5Oa3P-CXQSh83IXfHzO-5" value="&lt;div&gt;GYM to increase muscle mass and strength&lt;/div&gt;&lt;div&gt;&lt;br&gt;&lt;/div&gt;" style="rounded=0;whiteSpace=wrap;html=1;" vertex="1" parent="1">
          <mxGeometry x="470" y="210" width="120" height="60" as="geometry" />
        </mxCell>
        <mxCell id="b5Oa3P-CXQSh83IXfHzO-6" value="&lt;div&gt;Bodyweight to grow your strength&amp;nbsp;&lt;/div&gt;&lt;div&gt;&lt;br&gt;&lt;/div&gt;" style="rounded=0;whiteSpace=wrap;html=1;" vertex="1" parent="1">
          <mxGeometry x="660" y="210" width="120" height="60" as="geometry" />
        </mxCell>
        <mxCell id="b5Oa3P-CXQSh83IXfHzO-7" value="" style="endArrow=none;html=1;rounded=0;exitX=0.25;exitY=0;exitDx=0;exitDy=0;" edge="1" parent="1" source="b5Oa3P-CXQSh83IXfHzO-3" target="b5Oa3P-CXQSh83IXfHzO-1">
          <mxGeometry width="50" height="50" relative="1" as="geometry">
            <mxPoint x="390" y="360" as="sourcePoint" />
            <mxPoint x="440" y="310" as="targetPoint" />
            <Array as="points">
              <mxPoint x="120" y="80" />
            </Array>
          </mxGeometry>
        </mxCell>
        <mxCell id="b5Oa3P-CXQSh83IXfHzO-8" value="" style="endArrow=none;html=1;rounded=0;exitX=0.442;exitY=-0.067;exitDx=0;exitDy=0;exitPerimeter=0;" edge="1" parent="1" source="b5Oa3P-CXQSh83IXfHzO-4">
          <mxGeometry width="50" height="50" relative="1" as="geometry">
            <mxPoint x="130" y="220" as="sourcePoint" />
            <mxPoint x="350" y="100" as="targetPoint" />
            <Array as="points">
              <mxPoint x="230" y="150" />
            </Array>
          </mxGeometry>
        </mxCell>
        <mxCell id="b5Oa3P-CXQSh83IXfHzO-9" value="" style="endArrow=none;html=1;rounded=0;exitX=0.45;exitY=0.033;exitDx=0;exitDy=0;exitPerimeter=0;entryX=1;entryY=0.75;entryDx=0;entryDy=0;" edge="1" parent="1" source="b5Oa3P-CXQSh83IXfHzO-5" target="b5Oa3P-CXQSh83IXfHzO-1">
          <mxGeometry width="50" height="50" relative="1" as="geometry">
            <mxPoint x="353" y="216" as="sourcePoint" />
            <mxPoint x="360" y="110" as="targetPoint" />
            <Array as="points">
              <mxPoint x="610" y="150" />
            </Array>
          </mxGeometry>
        </mxCell>
        <mxCell id="b5Oa3P-CXQSh83IXfHzO-10" value="" style="endArrow=none;html=1;rounded=0;exitX=0.575;exitY=0;exitDx=0;exitDy=0;exitPerimeter=0;entryX=1;entryY=0.5;entryDx=0;entryDy=0;" edge="1" parent="1" source="b5Oa3P-CXQSh83IXfHzO-6" target="b5Oa3P-CXQSh83IXfHzO-1">
          <mxGeometry width="50" height="50" relative="1" as="geometry">
            <mxPoint x="534" y="222" as="sourcePoint" />
            <mxPoint x="480" y="105" as="targetPoint" />
            <Array as="points">
              <mxPoint x="730" y="80" />
            </Array>
          </mxGeometry>
        </mxCell>
      </root>
    </mxGraphModel>
  </diagram>
</mxfile>
